# This file uses centimeters as units for non-parametric coordinates.

mtllib Star.mtl
g default
v 0.618034 -0.500000 -1.902113
v -1.618034 -0.500000 -1.175571
v -1.618034 -0.500000 1.175570
v 0.618034 -0.500000 1.902113
v 2.000000 -0.500000 0.000000
v 0.618034 0.500000 -1.902113
v -1.618034 0.500000 -1.175571
v -1.618034 0.500000 1.175570
v 0.618034 0.500000 1.902113
v 2.000000 0.500000 0.000000
v 0.000000 -0.500000 0.000000
v 0.000000 0.500000 0.000000
v -1.118034 -0.500000 -3.440955
v -1.118034 0.500000 -3.440955
v -3.618034 -0.500000 0.035124
v -3.618034 0.500000 0.035124
v -1.118034 -0.500000 3.440954
v -1.118034 0.500000 3.440954
v 2.927051 -0.500000 2.126627
v 2.927051 0.500000 2.126627
v 2.927051 -0.500000 -2.126627
v 2.927051 0.500000 -2.126627
vt 0.548284 0.007647
vt 0.373591 0.064409
vt 0.373591 0.248091
vt 0.548284 0.304853
vt 0.656250 0.156250
vt 0.375000 0.312500
vt 0.425000 0.312500
vt 0.475000 0.312500
vt 0.525000 0.312500
vt 0.575000 0.312500
vt 0.625000 0.312500
vt 0.375000 0.688440
vt 0.425000 0.688440
vt 0.475000 0.688440
vt 0.525000 0.688440
vt 0.575000 0.688440
vt 0.625000 0.688440
vt 0.548284 0.695147
vt 0.373591 0.751909
vt 0.373591 0.935591
vt 0.548284 0.992353
vt 0.656250 0.843750
vt 0.500000 0.150000
vt 0.500000 0.837500
vt 0.400000 0.312500
vt 0.400000 0.688440
vt 0.450000 0.312500
vt 0.450000 0.688440
vt 0.500000 0.312500
vt 0.500000 0.688440
vt 0.550000 0.312500
vt 0.550000 0.688440
vt 0.600000 0.312500
vt 0.600000 0.688440
vn 0.000000 -1.000000 -0.000000
vn 0.000000 -1.000000 -0.000000
vn 0.000000 -1.000000 -0.000000
vn 0.000000 -1.000000 0.000000
vn 0.000000 -1.000000 0.000000
vn -0.000000 -1.000000 -0.000000
vn 0.000000 1.000000 0.000000
vn 0.000000 1.000000 -0.000000
vn 0.000000 1.000000 -0.000000
vn 0.000000 1.000000 -0.000000
vn 0.000000 1.000000 -0.000000
vn 0.000000 1.000000 -0.000000
vn 0.000000 -1.000000 0.000000
vn -0.976498 0.000000 -0.215526
vn -0.976498 0.000000 -0.215526
vn -0.976498 0.000000 -0.215526
vn -0.976498 0.000000 -0.215526
vn 0.000000 1.000000 0.000000
vn 0.663321 0.000000 -0.748335
vn 0.663321 0.000000 -0.748335
vn 0.663321 0.000000 -0.748335
vn 0.663321 0.000000 -0.748335
vn 0.000000 -1.000000 0.000000
vn -0.495350 0.000000 0.868694
vn -0.495350 0.000000 0.868694
vn -0.495350 0.000000 0.868694
vn -0.495350 0.000000 0.868694
vn 0.000000 1.000000 -0.000000
vn -0.517855 0.000000 -0.855468
vn -0.517855 0.000000 -0.855468
vn -0.517855 0.000000 -0.855468
vn -0.517855 0.000000 -0.855468
vn 0.000000 -1.000000 0.000000
vn 0.663321 0.000000 0.748335
vn 0.663321 0.000000 0.748335
vn 0.663321 0.000000 0.748335
vn 0.663321 0.000000 0.748335
vn 0.000000 1.000000 0.000000
vn -0.976498 0.000000 0.215526
vn -0.976498 0.000000 0.215526
vn -0.976498 0.000000 0.215526
vn -0.976498 0.000000 0.215526
vn 0.000000 -1.000000 0.000000
vn 0.916687 0.000000 -0.399607
vn 0.916687 0.000000 -0.399607
vn 0.916687 0.000000 -0.399607
vn 0.916687 0.000000 -0.399607
vn 0.000000 1.000000 0.000000
vn -0.096777 0.000000 0.995306
vn -0.096777 0.000000 0.995306
vn -0.096777 0.000000 0.995306
vn -0.096777 0.000000 0.995306
vn -0.000000 -1.000000 -0.000000
vn -0.096777 0.000000 -0.995306
vn -0.096777 0.000000 -0.995306
vn -0.096777 0.000000 -0.995306
vn -0.096777 0.000000 -0.995306
vn 0.000000 1.000000 0.000000
vn 0.916687 0.000000 0.399607
vn 0.916686 0.000000 0.399607
vn 0.916686 0.000000 0.399607
vn 0.916687 0.000000 0.399607
s 1
g pCylinder1
usemtl initialShadingGroup
f 2/2/1 1/1/2 11/23/3
f 3/3/4 2/2/1 11/23/3
f 4/4/5 3/3/4 11/23/3
f 5/5/6 4/4/5 11/23/3
f 1/1/2 5/5/6 11/23/3
s 2
f 6/21/7 7/20/8 12/24/9
f 7/20/8 8/19/10 12/24/9
f 8/19/10 9/18/11 12/24/9
f 9/18/11 10/22/12 12/24/9
f 10/22/12 6/21/7 12/24/9
s 1
f 1/6/2 2/7/1 13/25/13
s 3
f 2/7/14 7/13/15 13/25/16
f 13/25/16 7/13/15 14/26/17
s 2
f 7/13/8 6/12/7 14/26/18
s 4
f 6/12/19 1/6/20 14/26/21
f 14/26/21 1/6/20 13/25/22
s 1
f 2/7/1 3/8/4 15/27/23
s 5
f 3/8/24 8/14/25 15/27/26
f 15/27/26 8/14/25 16/28/27
s 2
f 8/14/10 7/13/8 16/28/28
s 6
f 7/13/29 2/7/30 16/28/31
f 16/28/31 2/7/30 15/27/32
s 1
f 3/8/4 4/9/5 17/29/33
s 7
f 4/9/34 9/15/35 17/29/36
f 17/29/36 9/15/35 18/30/37
s 2
f 9/15/11 8/14/10 18/30/38
s 8
f 8/14/39 3/8/40 18/30/41
f 18/30/41 3/8/40 17/29/42
s 1
f 4/9/5 5/10/6 19/31/43
s 9
f 5/10/44 10/16/45 19/31/46
f 19/31/46 10/16/45 20/32/47
s 2
f 10/16/12 9/15/11 20/32/48
s 10
f 9/15/49 4/9/50 20/32/51
f 20/32/51 4/9/50 19/31/52
s 1
f 5/10/6 1/11/2 21/33/53
s 11
f 1/11/54 6/17/55 21/33/56
f 21/33/56 6/17/55 22/34/57
s 2
f 6/17/7 10/16/12 22/34/58
s 12
f 10/16/59 5/10/60 22/34/61
f 22/34/61 5/10/60 21/33/62
g default
v 0.618034 -0.500000 -1.902113
v -1.618034 -0.500000 -1.175571
v -1.618034 -0.500000 1.175570
v 0.618034 -0.500000 1.902113
v 2.000000 -0.500000 0.000000
v 0.618034 0.500000 -1.902113
v -1.618034 0.500000 -1.175571
v -1.618034 0.500000 1.175570
v 0.618034 0.500000 1.902113
v 2.000000 0.500000 0.000000
v 0.000000 -0.500000 0.000000
v 0.000000 0.500000 0.000000
v -1.118034 -0.500000 -3.440955
v -1.118034 0.500000 -3.440955
v -3.618034 -0.500000 0.035124
v -3.618034 0.500000 0.035124
v -1.118034 -0.500000 3.440954
v -1.118034 0.500000 3.440954
v 2.927051 -0.500000 2.126627
v 2.927051 0.500000 2.126627
v 2.927051 -0.500000 -2.126627
v 2.927051 0.500000 -2.126627
vt 0.548284 0.007647
vt 0.373591 0.064409
vt 0.373591 0.248091
vt 0.548284 0.304853
vt 0.656250 0.156250
vt 0.375000 0.312500
vt 0.425000 0.312500
vt 0.475000 0.312500
vt 0.525000 0.312500
vt 0.575000 0.312500
vt 0.625000 0.312500
vt 0.375000 0.688440
vt 0.425000 0.688440
vt 0.475000 0.688440
vt 0.525000 0.688440
vt 0.575000 0.688440
vt 0.625000 0.688440
vt 0.548284 0.695147
vt 0.373591 0.751909
vt 0.373591 0.935591
vt 0.548284 0.992353
vt 0.656250 0.843750
vt 0.500000 0.150000
vt 0.500000 0.837500
vt 0.400000 0.312500
vt 0.400000 0.688440
vt 0.450000 0.312500
vt 0.450000 0.688440
vt 0.500000 0.312500
vt 0.500000 0.688440
vt 0.550000 0.312500
vt 0.550000 0.688440
vt 0.600000 0.312500
vt 0.600000 0.688440
vn 0.000000 -1.000000 -0.000000
vn 0.000000 -1.000000 -0.000000
vn 0.000000 -1.000000 -0.000000
vn 0.000000 -1.000000 0.000000
vn 0.000000 -1.000000 0.000000
vn -0.000000 -1.000000 -0.000000
vn 0.000000 1.000000 0.000000
vn 0.000000 1.000000 -0.000000
vn 0.000000 1.000000 -0.000000
vn 0.000000 1.000000 -0.000000
vn 0.000000 1.000000 -0.000000
vn 0.000000 1.000000 -0.000000
vn 0.000000 -1.000000 0.000000
vn -0.976498 0.000000 -0.215526
vn -0.976498 0.000000 -0.215526
vn -0.976498 0.000000 -0.215526
vn -0.976498 0.000000 -0.215526
vn 0.000000 1.000000 0.000000
vn 0.663321 0.000000 -0.748335
vn 0.663321 0.000000 -0.748335
vn 0.663321 0.000000 -0.748335
vn 0.663321 0.000000 -0.748335
vn 0.000000 -1.000000 0.000000
vn -0.495350 0.000000 0.868694
vn -0.495350 0.000000 0.868694
vn -0.495350 0.000000 0.868694
vn -0.495350 0.000000 0.868694
vn 0.000000 1.000000 -0.000000
vn -0.517855 0.000000 -0.855468
vn -0.517855 0.000000 -0.855468
vn -0.517855 0.000000 -0.855468
vn -0.517855 0.000000 -0.855468
vn 0.000000 -1.000000 0.000000
vn 0.663321 0.000000 0.748335
vn 0.663321 0.000000 0.748335
vn 0.663321 0.000000 0.748335
vn 0.663321 0.000000 0.748335
vn 0.000000 1.000000 0.000000
vn -0.976498 0.000000 0.215526
vn -0.976498 0.000000 0.215526
vn -0.976498 0.000000 0.215526
vn -0.976498 0.000000 0.215526
vn 0.000000 -1.000000 0.000000
vn 0.916687 0.000000 -0.399607
vn 0.916687 0.000000 -0.399607
vn 0.916687 0.000000 -0.399607
vn 0.916687 0.000000 -0.399607
vn 0.000000 1.000000 0.000000
vn -0.096777 0.000000 0.995306
vn -0.096777 0.000000 0.995306
vn -0.096777 0.000000 0.995306
vn -0.096777 0.000000 0.995306
vn -0.000000 -1.000000 -0.000000
vn -0.096777 0.000000 -0.995306
vn -0.096777 0.000000 -0.995306
vn -0.096777 0.000000 -0.995306
vn -0.096777 0.000000 -0.995306
vn 0.000000 1.000000 0.000000
vn 0.916687 0.000000 0.399607
vn 0.916686 0.000000 0.399607
vn 0.916686 0.000000 0.399607
vn 0.916687 0.000000 0.399607
s 1
g pCylinder1
f 24/36/63 23/35/64 33/57/65
f 25/37/66 24/36/63 33/57/65
f 26/38/67 25/37/66 33/57/65
f 27/39/68 26/38/67 33/57/65
f 23/35/64 27/39/68 33/57/65
s 2
f 28/55/69 29/54/70 34/58/71
f 29/54/70 30/53/72 34/58/71
f 30/53/72 31/52/73 34/58/71
f 31/52/73 32/56/74 34/58/71
f 32/56/74 28/55/69 34/58/71
s 1
f 23/40/64 24/41/63 35/59/75
s 3
f 24/41/76 29/47/77 35/59/78
f 35/59/78 29/47/77 36/60/79
s 2
f 29/47/70 28/46/69 36/60/80
s 4
f 28/46/81 23/40/82 36/60/83
f 36/60/83 23/40/82 35/59/84
s 1
f 24/41/63 25/42/66 37/61/85
s 5
f 25/42/86 30/48/87 37/61/88
f 37/61/88 30/48/87 38/62/89
s 2
f 30/48/72 29/47/70 38/62/90
s 6
f 29/47/91 24/41/92 38/62/93
f 38/62/93 24/41/92 37/61/94
s 1
f 25/42/66 26/43/67 39/63/95
s 7
f 26/43/96 31/49/97 39/63/98
f 39/63/98 31/49/97 40/64/99
s 2
f 31/49/73 30/48/72 40/64/100
s 8
f 30/48/101 25/42/102 40/64/103
f 40/64/103 25/42/102 39/63/104
s 1
f 26/43/67 27/44/68 41/65/105
s 9
f 27/44/106 32/50/107 41/65/108
f 41/65/108 32/50/107 42/66/109
s 2
f 32/50/74 31/49/73 42/66/110
s 10
f 31/49/111 26/43/112 42/66/113
f 42/66/113 26/43/112 41/65/114
s 1
f 27/44/68 23/45/64 43/67/115
s 11
f 23/45/116 28/51/117 43/67/118
f 43/67/118 28/51/117 44/68/119
s 2
f 28/51/69 32/50/74 44/68/120
s 12
f 32/50/121 27/44/122 44/68/123
f 44/68/123 27/44/122 43/67/124
