# This file uses centimeters as units for non-parametric coordinates.

mtllib Tree.mtl
g default
v 0.809017 0.000000 -0.587785
v 0.309017 0.000000 -0.951057
v -0.309017 0.000000 -0.951057
v -0.809017 0.000000 -0.587785
v -1.000000 0.000000 0.000000
v -0.809017 0.000000 0.587785
v -0.309017 0.000000 0.951057
v 0.309017 0.000000 0.951057
v 0.809017 0.000000 0.587785
v 1.000000 0.000000 0.000000
v 0.809017 5.000000 -0.587785
v 0.309017 5.000000 -0.951057
v -0.309017 5.000000 -0.951057
v -0.809017 5.000000 -0.587785
v -1.000000 5.000000 0.000000
v -0.809017 5.000000 0.587785
v -0.309017 5.000000 0.951057
v 0.309017 5.000000 0.951057
v 0.809017 5.000000 0.587785
v 1.000000 5.000000 0.000000
v 0.000000 0.000000 0.000000
v 2.022543 4.899881 -1.469464
v 0.772542 4.899881 -2.377642
v -0.772543 4.899881 -2.377641
v -2.022543 4.899881 -1.469463
v -2.500000 4.899881 0.000000
v -2.022543 4.899881 1.469463
v -0.772542 4.899881 2.377641
v 0.772543 4.899881 2.377641
v 2.022542 4.899881 1.469463
v 2.500000 4.899881 0.000000
v 0.000000 9.899881 0.000000
v 2.022543 3.507045 -1.469464
v 0.772542 3.507045 -2.377642
v -0.772543 3.507045 -2.377641
v -2.022543 3.507045 -1.469463
v -2.500000 3.507045 0.000000
v -2.022543 3.507045 1.469463
v -0.772542 3.507045 2.377641
v 0.772543 3.507045 2.377641
v 2.022542 3.507045 1.469463
v 2.500000 3.507045 0.000000
v 0.000000 8.507045 0.000000
v 0.809017 0.000000 -0.587785
v 0.309017 0.000000 -0.951057
v -0.309017 0.000000 -0.951057
v -0.809017 0.000000 -0.587785
v -1.000000 0.000000 0.000000
v -0.809017 0.000000 0.587785
v -0.309017 0.000000 0.951057
v 0.309017 0.000000 0.951057
v 0.809017 0.000000 0.587785
v 1.000000 0.000000 0.000000
v 0.809017 5.000000 -0.587785
v 0.309017 5.000000 -0.951057
v -0.309017 5.000000 -0.951057
v -0.809017 5.000000 -0.587785
v -1.000000 5.000000 0.000000
v -0.809017 5.000000 0.587785
v -0.309017 5.000000 0.951057
v 0.309017 5.000000 0.951057
v 0.809017 5.000000 0.587785
v 1.000000 5.000000 0.000000
v 0.000000 0.000000 0.000000
v 2.022543 4.899881 -1.469464
v 0.772542 4.899881 -2.377642
v -0.772543 4.899881 -2.377641
v -2.022543 4.899881 -1.469463
v -2.500000 4.899881 0.000000
v -2.022543 4.899881 1.469463
v -0.772542 4.899881 2.377641
v 0.772543 4.899881 2.377641
v 2.022542 4.899881 1.469463
v 2.500000 4.899881 0.000000
v 0.000000 9.899881 0.000000
v 2.022543 3.507045 -1.469464
v 0.772542 3.507045 -2.377642
v -0.772543 3.507045 -2.377641
v -2.022543 3.507045 -1.469463
v -2.500000 3.507045 0.000000
v -2.022543 3.507045 1.469463
v -0.772542 3.507045 2.377641
v 0.772543 3.507045 2.377641
v 2.022542 3.507045 1.469463
v 2.500000 3.507045 0.000000
v 0.000000 8.507045 0.000000
vt 0.375000 0.312500
vt 0.400000 0.312500
vt 0.375000 0.688440
vt 0.400000 0.688440
vt 0.425000 0.312500
vt 0.425000 0.688440
vt 0.450000 0.312500
vt 0.450000 0.688440
vt 0.475000 0.312500
vt 0.475000 0.688440
vt 0.500000 0.312500
vt 0.500000 0.688440
vt 0.525000 0.312500
vt 0.525000 0.688440
vt 0.550000 0.312500
vt 0.550000 0.688440
vt 0.575000 0.312500
vt 0.575000 0.688440
vt 0.600000 0.312500
vt 0.600000 0.688440
vt 0.625000 0.312500
vt 0.625000 0.688440
vt 0.548284 0.007647
vt 0.626409 0.064409
vt 0.500000 0.150000
vt 0.451716 0.007647
vt 0.373591 0.064409
vt 0.343750 0.156250
vt 0.373591 0.248091
vt 0.451716 0.304853
vt 0.548284 0.304853
vt 0.626409 0.248091
vt 0.656250 0.156250
vt 0.702254 0.103054
vt 0.750000 0.250000
vt 0.577254 0.012236
vt 0.702254 0.396946
vt 0.577254 0.487764
vt 0.422746 0.487764
vt 0.297746 0.396946
vt 0.250000 0.250000
vt 0.297746 0.103054
vt 0.422746 0.012236
vt 0.250000 0.500000
vt 0.300000 0.500000
vt 0.500000 1.000000
vt 0.350000 0.500000
vt 0.400000 0.500000
vt 0.450000 0.500000
vt 0.500000 0.500000
vt 0.550000 0.500000
vt 0.600000 0.500000
vt 0.650000 0.500000
vt 0.700000 0.500000
vt 0.750000 0.500000
vt 0.702254 0.103054
vt 0.750000 0.250000
vt 0.577254 0.012236
vt 0.702254 0.396946
vt 0.577254 0.487764
vt 0.422746 0.487764
vt 0.297746 0.396946
vt 0.250000 0.250000
vt 0.297746 0.103054
vt 0.422746 0.012236
vt 0.250000 0.500000
vt 0.300000 0.500000
vt 0.500000 1.000000
vt 0.350000 0.500000
vt 0.400000 0.500000
vt 0.450000 0.500000
vt 0.500000 0.500000
vt 0.550000 0.500000
vt 0.600000 0.500000
vt 0.650000 0.500000
vt 0.700000 0.500000
vt 0.750000 0.500000
vt 0.375000 0.312500
vt 0.400000 0.312500
vt 0.375000 0.688440
vt 0.400000 0.688440
vt 0.425000 0.312500
vt 0.425000 0.688440
vt 0.450000 0.312500
vt 0.450000 0.688440
vt 0.475000 0.312500
vt 0.475000 0.688440
vt 0.500000 0.312500
vt 0.500000 0.688440
vt 0.525000 0.312500
vt 0.525000 0.688440
vt 0.550000 0.312500
vt 0.550000 0.688440
vt 0.575000 0.312500
vt 0.575000 0.688440
vt 0.600000 0.312500
vt 0.600000 0.688440
vt 0.625000 0.312500
vt 0.625000 0.688440
vt 0.548284 0.007647
vt 0.626409 0.064409
vt 0.500000 0.150000
vt 0.451716 0.007647
vt 0.373591 0.064409
vt 0.343750 0.156250
vt 0.373591 0.248091
vt 0.451716 0.304853
vt 0.548284 0.304853
vt 0.626409 0.248091
vt 0.656250 0.156250
vt 0.702254 0.103054
vt 0.750000 0.250000
vt 0.577254 0.012236
vt 0.702254 0.396946
vt 0.577254 0.487764
vt 0.422746 0.487764
vt 0.297746 0.396946
vt 0.250000 0.250000
vt 0.297746 0.103054
vt 0.422746 0.012236
vt 0.250000 0.500000
vt 0.300000 0.500000
vt 0.500000 1.000000
vt 0.350000 0.500000
vt 0.400000 0.500000
vt 0.450000 0.500000
vt 0.500000 0.500000
vt 0.550000 0.500000
vt 0.600000 0.500000
vt 0.650000 0.500000
vt 0.700000 0.500000
vt 0.750000 0.500000
vt 0.702254 0.103054
vt 0.750000 0.250000
vt 0.577254 0.012236
vt 0.702254 0.396946
vt 0.577254 0.487764
vt 0.422746 0.487764
vt 0.297746 0.396946
vt 0.250000 0.250000
vt 0.297746 0.103054
vt 0.422746 0.012236
vt 0.250000 0.500000
vt 0.300000 0.500000
vt 0.500000 1.000000
vt 0.350000 0.500000
vt 0.400000 0.500000
vt 0.450000 0.500000
vt 0.500000 0.500000
vt 0.550000 0.500000
vt 0.600000 0.500000
vt 0.650000 0.500000
vt 0.700000 0.500000
vt 0.750000 0.500000
vn 0.587785 0.000000 -0.809017
vn 0.587785 0.000000 -0.809017
vn 0.587785 0.000000 -0.809017
vn 0.587785 0.000000 -0.809017
vn 0.587785 0.000000 -0.809017
vn 0.587785 0.000000 -0.809017
vn 0.000000 0.000000 -1.000000
vn 0.000000 0.000000 -1.000000
vn 0.000000 0.000000 -1.000000
vn 0.000000 0.000000 -1.000000
vn 0.000000 0.000000 -1.000000
vn 0.000000 0.000000 -1.000000
vn -0.587785 0.000000 -0.809017
vn -0.587785 0.000000 -0.809017
vn -0.587785 0.000000 -0.809017
vn -0.587785 0.000000 -0.809017
vn -0.587785 0.000000 -0.809017
vn -0.587785 0.000000 -0.809017
vn -0.951057 0.000000 -0.309017
vn -0.951057 0.000000 -0.309017
vn -0.951057 0.000000 -0.309017
vn -0.951057 0.000000 -0.309017
vn -0.951057 0.000000 -0.309017
vn -0.951057 0.000000 -0.309017
vn -0.951057 0.000000 0.309017
vn -0.951057 0.000000 0.309017
vn -0.951057 0.000000 0.309017
vn -0.951057 0.000000 0.309017
vn -0.951057 0.000000 0.309017
vn -0.951057 0.000000 0.309017
vn -0.587785 0.000000 0.809017
vn -0.587785 0.000000 0.809017
vn -0.587785 0.000000 0.809017
vn -0.587785 0.000000 0.809017
vn -0.587785 0.000000 0.809017
vn -0.587785 0.000000 0.809017
vn 0.000000 0.000000 1.000000
vn 0.000000 0.000000 1.000000
vn 0.000000 0.000000 1.000000
vn 0.000000 0.000000 1.000000
vn 0.000000 0.000000 1.000000
vn 0.000000 0.000000 1.000000
vn 0.587785 0.000000 0.809017
vn 0.587785 0.000000 0.809017
vn 0.587785 0.000000 0.809017
vn 0.587785 0.000000 0.809017
vn 0.587785 0.000000 0.809017
vn 0.587785 0.000000 0.809017
vn 0.951057 0.000000 0.309017
vn 0.951057 0.000000 0.309017
vn 0.951057 0.000000 0.309017
vn 0.951057 0.000000 0.309017
vn 0.951057 0.000000 0.309017
vn 0.951057 0.000000 0.309017
vn 0.951057 0.000000 -0.309017
vn 0.951057 0.000000 -0.309017
vn 0.951057 0.000000 -0.309017
vn 0.951057 0.000000 -0.309017
vn 0.951057 0.000000 -0.309017
vn 0.951057 0.000000 -0.309017
vn 0.000000 -1.000000 0.000000
vn 0.000000 -1.000000 0.000000
vn 0.000000 -1.000000 0.000000
vn 0.000000 -1.000000 0.000000
vn 0.000000 -1.000000 0.000000
vn 0.000000 -1.000000 0.000000
vn 0.000000 -1.000000 0.000000
vn 0.000000 -1.000000 0.000000
vn 0.000000 -1.000000 0.000000
vn 0.000000 -1.000000 0.000000
vn 0.000000 -1.000000 0.000000
vn 0.000000 -1.000000 0.000000
vn 0.000000 -1.000000 0.000000
vn 0.000000 -1.000000 0.000000
vn 0.000000 -1.000000 0.000000
vn 0.000000 -1.000000 0.000000
vn 0.000000 -1.000000 0.000000
vn 0.000000 -1.000000 0.000000
vn 0.000000 -1.000000 0.000000
vn 0.000000 -1.000000 0.000000
vn 0.000000 -1.000000 0.000000
vn 0.000000 -1.000000 0.000000
vn 0.000000 -1.000000 0.000000
vn 0.000000 -1.000000 0.000000
vn 0.000000 -1.000000 0.000000
vn 0.000000 -1.000000 0.000000
vn 0.000000 -1.000000 0.000000
vn 0.000000 -1.000000 0.000000
vn 0.000000 -1.000000 0.000000
vn 0.000000 -1.000000 0.000000
vn 0.000000 -1.000000 0.000000
vn 0.000000 -1.000000 0.000000
vn 0.000000 -1.000000 0.000000
vn 0.000000 -1.000000 0.000000
vn 0.000000 -1.000000 0.000000
vn 0.000000 -1.000000 0.000000
vn 0.000000 -1.000000 0.000000
vn 0.000000 -1.000000 0.000000
vn 0.000000 -1.000000 0.000000
vn 0.000000 -1.000000 0.000000
vn 0.000000 -1.000000 0.000000
vn 0.000000 -1.000000 0.000000
vn 0.000000 -1.000000 0.000000
vn 0.000000 -1.000000 0.000000
vn 0.000000 -1.000000 0.000000
vn 0.000000 -1.000000 0.000000
vn 0.000000 -1.000000 0.000000
vn 0.000000 -1.000000 0.000000
vn 0.000000 -1.000000 0.000000
vn 0.000000 -1.000000 0.000000
vn 0.000000 -1.000000 0.000000
vn 0.000000 -1.000000 0.000000
vn 0.000000 -1.000000 0.000000
vn 0.000000 -1.000000 0.000000
vn 0.530824 0.429446 -0.730617
vn 0.530824 0.429446 -0.730617
vn 0.530824 0.429446 -0.730617
vn 0.000000 0.429446 -0.903093
vn 0.000000 0.429446 -0.903093
vn 0.000000 0.429446 -0.903093
vn -0.530825 0.429446 -0.730617
vn -0.530825 0.429446 -0.730617
vn -0.530825 0.429446 -0.730617
vn -0.858892 0.429446 -0.279071
vn -0.858892 0.429446 -0.279071
vn -0.858892 0.429446 -0.279071
vn -0.858892 0.429446 0.279071
vn -0.858892 0.429446 0.279071
vn -0.858892 0.429446 0.279071
vn -0.530824 0.429446 0.730617
vn -0.530824 0.429446 0.730617
vn -0.530824 0.429446 0.730617
vn 0.000000 0.429446 0.903093
vn 0.000000 0.429446 0.903093
vn 0.000000 0.429446 0.903093
vn 0.530825 0.429446 0.730617
vn 0.530825 0.429446 0.730617
vn 0.530825 0.429446 0.730617
vn 0.858892 0.429446 0.279071
vn 0.858892 0.429446 0.279071
vn 0.858892 0.429446 0.279071
vn 0.858892 0.429446 -0.279071
vn 0.858892 0.429446 -0.279071
vn 0.858892 0.429446 -0.279071
vn 0.000000 -1.000000 0.000000
vn 0.000000 -1.000000 0.000000
vn 0.000000 -1.000000 0.000000
vn 0.000000 -1.000000 0.000000
vn 0.000000 -1.000000 0.000000
vn 0.000000 -1.000000 0.000000
vn 0.000000 -1.000000 0.000000
vn 0.000000 -1.000000 0.000000
vn 0.000000 -1.000000 0.000000
vn 0.000000 -1.000000 0.000000
vn 0.000000 -1.000000 0.000000
vn 0.000000 -1.000000 0.000000
vn 0.000000 -1.000000 0.000000
vn 0.000000 -1.000000 0.000000
vn 0.000000 -1.000000 0.000000
vn 0.000000 -1.000000 0.000000
vn 0.000000 -1.000000 0.000000
vn 0.000000 -1.000000 0.000000
vn 0.000000 -1.000000 0.000000
vn 0.000000 -1.000000 0.000000
vn 0.000000 -1.000000 0.000000
vn 0.000000 -1.000000 0.000000
vn 0.000000 -1.000000 0.000000
vn 0.000000 -1.000000 0.000000
vn 0.530824 0.429446 -0.730617
vn 0.530824 0.429446 -0.730617
vn 0.530824 0.429446 -0.730617
vn 0.000000 0.429446 -0.903093
vn 0.000000 0.429446 -0.903093
vn 0.000000 0.429446 -0.903092
vn -0.530825 0.429446 -0.730617
vn -0.530825 0.429446 -0.730617
vn -0.530824 0.429446 -0.730617
vn -0.858892 0.429446 -0.279071
vn -0.858892 0.429446 -0.279071
vn -0.858892 0.429446 -0.279071
vn -0.858892 0.429446 0.279071
vn -0.858892 0.429446 0.279071
vn -0.858892 0.429446 0.279071
vn -0.530824 0.429446 0.730617
vn -0.530824 0.429446 0.730617
vn -0.530824 0.429446 0.730617
vn 0.000000 0.429446 0.903093
vn 0.000000 0.429446 0.903093
vn 0.000000 0.429446 0.903093
vn 0.530825 0.429446 0.730617
vn 0.530825 0.429446 0.730617
vn 0.530825 0.429446 0.730617
vn 0.858892 0.429446 0.279071
vn 0.858892 0.429446 0.279071
vn 0.858892 0.429446 0.279071
vn 0.858892 0.429446 -0.279071
vn 0.858892 0.429446 -0.279071
vn 0.858892 0.429446 -0.279071
vn 0.587785 0.000000 -0.809017
vn 0.587785 0.000000 -0.809017
vn 0.587785 0.000000 -0.809017
vn 0.587785 0.000000 -0.809017
vn 0.587785 0.000000 -0.809017
vn 0.587785 0.000000 -0.809017
vn 0.000000 0.000000 -1.000000
vn 0.000000 0.000000 -1.000000
vn 0.000000 0.000000 -1.000000
vn 0.000000 0.000000 -1.000000
vn 0.000000 0.000000 -1.000000
vn 0.000000 0.000000 -1.000000
vn -0.587785 0.000000 -0.809017
vn -0.587785 0.000000 -0.809017
vn -0.587785 0.000000 -0.809017
vn -0.587785 0.000000 -0.809017
vn -0.587785 0.000000 -0.809017
vn -0.587785 0.000000 -0.809017
vn -0.951057 0.000000 -0.309017
vn -0.951057 0.000000 -0.309017
vn -0.951057 0.000000 -0.309017
vn -0.951057 0.000000 -0.309017
vn -0.951057 0.000000 -0.309017
vn -0.951057 0.000000 -0.309017
vn -0.951057 0.000000 0.309017
vn -0.951057 0.000000 0.309017
vn -0.951057 0.000000 0.309017
vn -0.951057 0.000000 0.309017
vn -0.951057 0.000000 0.309017
vn -0.951057 0.000000 0.309017
vn -0.587785 0.000000 0.809017
vn -0.587785 0.000000 0.809017
vn -0.587785 0.000000 0.809017
vn -0.587785 0.000000 0.809017
vn -0.587785 0.000000 0.809017
vn -0.587785 0.000000 0.809017
vn 0.000000 0.000000 1.000000
vn 0.000000 0.000000 1.000000
vn 0.000000 0.000000 1.000000
vn 0.000000 0.000000 1.000000
vn 0.000000 0.000000 1.000000
vn 0.000000 0.000000 1.000000
vn 0.587785 0.000000 0.809017
vn 0.587785 0.000000 0.809017
vn 0.587785 0.000000 0.809017
vn 0.587785 0.000000 0.809017
vn 0.587785 0.000000 0.809017
vn 0.587785 0.000000 0.809017
vn 0.951057 0.000000 0.309017
vn 0.951057 0.000000 0.309017
vn 0.951057 0.000000 0.309017
vn 0.951057 0.000000 0.309017
vn 0.951057 0.000000 0.309017
vn 0.951057 0.000000 0.309017
vn 0.951057 0.000000 -0.309017
vn 0.951057 0.000000 -0.309017
vn 0.951057 0.000000 -0.309017
vn 0.951057 0.000000 -0.309017
vn 0.951057 0.000000 -0.309017
vn 0.951057 0.000000 -0.309017
vn 0.000000 -1.000000 0.000000
vn 0.000000 -1.000000 0.000000
vn 0.000000 -1.000000 0.000000
vn 0.000000 -1.000000 0.000000
vn 0.000000 -1.000000 0.000000
vn 0.000000 -1.000000 0.000000
vn 0.000000 -1.000000 0.000000
vn 0.000000 -1.000000 0.000000
vn 0.000000 -1.000000 0.000000
vn 0.000000 -1.000000 0.000000
vn 0.000000 -1.000000 0.000000
vn 0.000000 -1.000000 0.000000
vn 0.000000 -1.000000 0.000000
vn 0.000000 -1.000000 0.000000
vn 0.000000 -1.000000 0.000000
vn 0.000000 -1.000000 0.000000
vn 0.000000 -1.000000 0.000000
vn 0.000000 -1.000000 0.000000
vn 0.000000 -1.000000 0.000000
vn 0.000000 -1.000000 0.000000
vn 0.000000 -1.000000 0.000000
vn 0.000000 -1.000000 0.000000
vn 0.000000 -1.000000 0.000000
vn 0.000000 -1.000000 0.000000
vn 0.000000 -1.000000 0.000000
vn 0.000000 -1.000000 0.000000
vn 0.000000 -1.000000 0.000000
vn 0.000000 -1.000000 0.000000
vn 0.000000 -1.000000 0.000000
vn 0.000000 -1.000000 0.000000
vn 0.000000 -1.000000 0.000000
vn 0.000000 -1.000000 0.000000
vn 0.000000 -1.000000 0.000000
vn 0.000000 -1.000000 0.000000
vn 0.000000 -1.000000 0.000000
vn 0.000000 -1.000000 0.000000
vn 0.000000 -1.000000 0.000000
vn 0.000000 -1.000000 0.000000
vn 0.000000 -1.000000 0.000000
vn 0.000000 -1.000000 0.000000
vn 0.000000 -1.000000 0.000000
vn 0.000000 -1.000000 0.000000
vn 0.000000 -1.000000 0.000000
vn 0.000000 -1.000000 0.000000
vn 0.000000 -1.000000 0.000000
vn 0.000000 -1.000000 0.000000
vn 0.000000 -1.000000 0.000000
vn 0.000000 -1.000000 0.000000
vn 0.000000 -1.000000 0.000000
vn 0.000000 -1.000000 0.000000
vn 0.000000 -1.000000 0.000000
vn 0.000000 -1.000000 0.000000
vn 0.000000 -1.000000 0.000000
vn 0.000000 -1.000000 0.000000
vn 0.530824 0.429446 -0.730617
vn 0.530824 0.429446 -0.730617
vn 0.530824 0.429446 -0.730617
vn 0.000000 0.429446 -0.903093
vn 0.000000 0.429446 -0.903093
vn 0.000000 0.429446 -0.903093
vn -0.530825 0.429446 -0.730617
vn -0.530825 0.429446 -0.730617
vn -0.530825 0.429446 -0.730617
vn -0.858892 0.429446 -0.279071
vn -0.858892 0.429446 -0.279071
vn -0.858892 0.429446 -0.279071
vn -0.858892 0.429446 0.279071
vn -0.858892 0.429446 0.279071
vn -0.858892 0.429446 0.279071
vn -0.530824 0.429446 0.730617
vn -0.530824 0.429446 0.730617
vn -0.530824 0.429446 0.730617
vn 0.000000 0.429446 0.903093
vn 0.000000 0.429446 0.903093
vn 0.000000 0.429446 0.903093
vn 0.530825 0.429446 0.730617
vn 0.530825 0.429446 0.730617
vn 0.530825 0.429446 0.730617
vn 0.858892 0.429446 0.279071
vn 0.858892 0.429446 0.279071
vn 0.858892 0.429446 0.279071
vn 0.858892 0.429446 -0.279071
vn 0.858892 0.429446 -0.279071
vn 0.858892 0.429446 -0.279071
vn 0.000000 -1.000000 0.000000
vn 0.000000 -1.000000 0.000000
vn 0.000000 -1.000000 0.000000
vn 0.000000 -1.000000 0.000000
vn 0.000000 -1.000000 0.000000
vn 0.000000 -1.000000 0.000000
vn 0.000000 -1.000000 0.000000
vn 0.000000 -1.000000 0.000000
vn 0.000000 -1.000000 0.000000
vn 0.000000 -1.000000 0.000000
vn 0.000000 -1.000000 0.000000
vn 0.000000 -1.000000 0.000000
vn 0.000000 -1.000000 0.000000
vn 0.000000 -1.000000 0.000000
vn 0.000000 -1.000000 0.000000
vn 0.000000 -1.000000 0.000000
vn 0.000000 -1.000000 0.000000
vn 0.000000 -1.000000 0.000000
vn 0.000000 -1.000000 0.000000
vn 0.000000 -1.000000 0.000000
vn 0.000000 -1.000000 0.000000
vn 0.000000 -1.000000 0.000000
vn 0.000000 -1.000000 0.000000
vn 0.000000 -1.000000 0.000000
vn 0.530824 0.429446 -0.730617
vn 0.530824 0.429446 -0.730617
vn 0.530824 0.429446 -0.730617
vn 0.000000 0.429446 -0.903093
vn 0.000000 0.429446 -0.903093
vn 0.000000 0.429446 -0.903092
vn -0.530825 0.429446 -0.730617
vn -0.530825 0.429446 -0.730617
vn -0.530824 0.429446 -0.730617
vn -0.858892 0.429446 -0.279071
vn -0.858892 0.429446 -0.279071
vn -0.858892 0.429446 -0.279071
vn -0.858892 0.429446 0.279071
vn -0.858892 0.429446 0.279071
vn -0.858892 0.429446 0.279071
vn -0.530824 0.429446 0.730617
vn -0.530824 0.429446 0.730617
vn -0.530824 0.429446 0.730617
vn 0.000000 0.429446 0.903093
vn 0.000000 0.429446 0.903093
vn 0.000000 0.429446 0.903093
vn 0.530825 0.429446 0.730617
vn 0.530825 0.429446 0.730617
vn 0.530825 0.429446 0.730617
vn 0.858892 0.429446 0.279071
vn 0.858892 0.429446 0.279071
vn 0.858892 0.429446 0.279071
vn 0.858892 0.429446 -0.279071
vn 0.858892 0.429446 -0.279071
vn 0.858892 0.429446 -0.279071
s off
g pCylinder2
usemtl initialShadingGroup
f 1/1/1 2/2/2 11/3/3
f 11/3/4 2/2/5 12/4/6
f 2/2/7 3/5/8 12/4/9
f 12/4/10 3/5/11 13/6/12
f 3/5/13 4/7/14 13/6/15
f 13/6/16 4/7/17 14/8/18
f 4/7/19 5/9/20 14/8/21
f 14/8/22 5/9/23 15/10/24
f 5/9/25 6/11/26 15/10/27
f 15/10/28 6/11/29 16/12/30
f 6/11/31 7/13/32 16/12/33
f 16/12/34 7/13/35 17/14/36
f 7/13/37 8/15/38 17/14/39
f 17/14/40 8/15/41 18/16/42
f 8/15/43 9/17/44 18/16/45
f 18/16/46 9/17/47 19/18/48
f 9/17/49 10/19/50 19/18/51
f 19/18/52 10/19/53 20/20/54
f 10/19/55 1/21/56 20/20/57
f 20/20/58 1/21/59 11/22/60
f 2/23/61 1/24/62 21/25/63
f 3/26/64 2/23/65 21/25/66
f 4/27/67 3/26/68 21/25/69
f 5/28/70 4/27/71 21/25/72
f 6/29/73 5/28/74 21/25/75
f 7/30/76 6/29/77 21/25/78
f 8/31/79 7/30/80 21/25/81
f 9/32/82 8/31/83 21/25/84
f 10/33/85 9/32/86 21/25/87
f 1/24/88 10/33/89 21/25/90
f 22/34/91 31/35/92 23/36/93
f 31/35/94 30/37/95 23/36/96
f 30/37/97 29/38/98 23/36/99
f 29/38/100 28/39/101 23/36/102
f 28/39/103 27/40/104 23/36/105
f 27/40/106 26/41/107 23/36/108
f 26/41/109 25/42/110 23/36/111
f 25/42/112 24/43/113 23/36/114
f 22/44/115 23/45/116 32/46/117
f 23/45/118 24/47/119 32/46/120
f 24/47/121 25/48/122 32/46/123
f 25/48/124 26/49/125 32/46/126
f 26/49/127 27/50/128 32/46/129
f 27/50/130 28/51/131 32/46/132
f 28/51/133 29/52/134 32/46/135
f 29/52/136 30/53/137 32/46/138
f 30/53/139 31/54/140 32/46/141
f 31/54/142 22/55/143 32/46/144
f 33/56/145 42/57/146 34/58/147
f 42/57/148 41/59/149 34/58/150
f 41/59/151 40/60/152 34/58/153
f 40/60/154 39/61/155 34/58/156
f 39/61/157 38/62/158 34/58/159
f 38/62/160 37/63/161 34/58/162
f 37/63/163 36/64/164 34/58/165
f 36/64/166 35/65/167 34/58/168
f 33/66/169 34/67/170 43/68/171
f 34/67/172 35/69/173 43/68/174
f 35/69/175 36/70/176 43/68/177
f 36/70/178 37/71/179 43/68/180
f 37/71/181 38/72/182 43/68/183
f 38/72/184 39/73/185 43/68/186
f 39/73/187 40/74/188 43/68/189
f 40/74/190 41/75/191 43/68/192
f 41/75/193 42/76/194 43/68/195
f 42/76/196 33/77/197 43/68/198
f 44/78/199 45/79/200 54/80/201
f 54/80/202 45/79/203 55/81/204
f 45/79/205 46/82/206 55/81/207
f 55/81/208 46/82/209 56/83/210
f 46/82/211 47/84/212 56/83/213
f 56/83/214 47/84/215 57/85/216
f 47/84/217 48/86/218 57/85/219
f 57/85/220 48/86/221 58/87/222
f 48/86/223 49/88/224 58/87/225
f 58/87/226 49/88/227 59/89/228
f 49/88/229 50/90/230 59/89/231
f 59/89/232 50/90/233 60/91/234
f 50/90/235 51/92/236 60/91/237
f 60/91/238 51/92/239 61/93/240
f 51/92/241 52/94/242 61/93/243
f 61/93/244 52/94/245 62/95/246
f 52/94/247 53/96/248 62/95/249
f 62/95/250 53/96/251 63/97/252
f 53/96/253 44/98/254 63/97/255
f 63/97/256 44/98/257 54/99/258
f 45/100/259 44/101/260 64/102/261
f 46/103/262 45/100/263 64/102/264
f 47/104/265 46/103/266 64/102/267
f 48/105/268 47/104/269 64/102/270
f 49/106/271 48/105/272 64/102/273
f 50/107/274 49/106/275 64/102/276
f 51/108/277 50/107/278 64/102/279
f 52/109/280 51/108/281 64/102/282
f 53/110/283 52/109/284 64/102/285
f 44/101/286 53/110/287 64/102/288
f 65/111/289 74/112/290 66/113/291
f 74/112/292 73/114/293 66/113/294
f 73/114/295 72/115/296 66/113/297
f 72/115/298 71/116/299 66/113/300
f 71/116/301 70/117/302 66/113/303
f 70/117/304 69/118/305 66/113/306
f 69/118/307 68/119/308 66/113/309
f 68/119/310 67/120/311 66/113/312
f 65/121/313 66/122/314 75/123/315
f 66/122/316 67/124/317 75/123/318
f 67/124/319 68/125/320 75/123/321
f 68/125/322 69/126/323 75/123/324
f 69/126/325 70/127/326 75/123/327
f 70/127/328 71/128/329 75/123/330
f 71/128/331 72/129/332 75/123/333
f 72/129/334 73/130/335 75/123/336
f 73/130/337 74/131/338 75/123/339
f 74/131/340 65/132/341 75/123/342
f 76/133/343 85/134/344 77/135/345
f 85/134/346 84/136/347 77/135/348
f 84/136/349 83/137/350 77/135/351
f 83/137/352 82/138/353 77/135/354
f 82/138/355 81/139/356 77/135/357
f 81/139/358 80/140/359 77/135/360
f 80/140/361 79/141/362 77/135/363
f 79/141/364 78/142/365 77/135/366
f 76/143/367 77/144/368 86/145/369
f 77/144/370 78/146/371 86/145/372
f 78/146/373 79/147/374 86/145/375
f 79/147/376 80/148/377 86/145/378
f 80/148/379 81/149/380 86/145/381
f 81/149/382 82/150/383 86/145/384
f 82/150/385 83/151/386 86/145/387
f 83/151/388 84/152/389 86/145/390
f 84/152/391 85/153/392 86/145/393
f 85/153/394 76/154/395 86/145/396
